<svg width="91" height="80" viewBox="0 0 91 80" fill="none" xmlns="http://www.w3.org/2000/svg">
<path d="M0 69.3877H34.2826C34.8349 69.3877 35.2826 69.8354 35.2826 70.3877V72.4693C35.2826 73.0216 35.7304 73.4693 36.2826 73.4693H54.3296C54.8819 73.4693 55.3296 73.0216 55.3296 72.4693V70.3877C55.3296 69.8354 55.7773 69.3877 56.3296 69.3877H90.6122V69.9999C90.6122 75.5228 86.1351 79.9999 80.6122 79.9999H9.99999C4.47714 79.9999 0 75.5228 0 69.9999V69.3877Z" fill="#986DFF"/>
<rect x="7.34692" y="57.959" width="75.102" height="8.16327" fill="#986DFF"/>
<rect x="7.34692" y="18.7754" width="2.44898" height="39.1837" fill="#986DFF"/>
<rect x="80" y="18.7754" width="2.44898" height="39.1837" fill="#986DFF"/>
<rect x="13.0612" y="32.6531" width="8.16327" height="22.0408" fill="#986DFF"/>
<rect x="25.3061" y="32.6531" width="8.16327" height="22.0408" fill="#986DFF"/>
<rect x="36.7347" y="32.6531" width="40.8163" height="2.44898" fill="#986DFF"/>
<rect x="48.9796" y="35.9182" width="28.5714" height="2.44898" fill="#986DFF"/>
<rect x="48.9796" y="39.1836" width="28.5714" height="2.44898" fill="#986DFF"/>
<rect x="48.9796" y="42.449" width="28.5714" height="2.44898" fill="#986DFF"/>
<rect x="36.7347" y="45.7141" width="40.8163" height="2.44898" fill="#986DFF"/>
<rect x="36.7347" y="48.9795" width="40.8163" height="2.44898" fill="#986DFF"/>
<rect x="36.7347" y="52.2449" width="40.8163" height="2.44898" fill="#986DFF"/>
<path d="M7.34692 19.5917C7.34692 17.7883 8.80885 16.3264 10.6122 16.3264H47.3469V19.5917H7.34692V19.5917Z" fill="#986DFF"/>
<path d="M82.449 19.5917C82.449 17.7883 80.987 16.3264 79.1837 16.3264L68.5714 16.3264V19.5917L82.449 19.5917V19.5917Z" fill="#986DFF"/>
<path d="M13.0612 22.8569H40.8873H47.3469V31.0202H13.0612V22.8569Z" fill="#986DFF"/>
<path d="M76.7347 22.8569H68.5714V31.0202H76.7347V22.8569Z" fill="#986DFF"/>
<path d="M66.1163 23.8579V23.8462C64.355 25.1745 61.4192 26.0138 57.9561 26.0138C54.9307 26.0138 52.308 25.3732 50.519 24.3256C50.2651 24.1748 50.0265 24.0152 49.8058 23.8463V23.8532C49.8027 23.8508 49.7992 23.8486 49.796 23.8462V27.3682C49.796 29.382 53.4565 31.0205 57.9562 31.0205C62.4558 31.0205 66.1163 29.382 66.1163 27.3682V25.2067L66.1224 23.8535C66.1204 23.855 66.1183 23.8564 66.1163 23.8579Z" fill="#986DFF"/>
<path d="M57.9561 24.4707C62.4558 24.4707 66.1163 22.8322 66.1163 20.8185V20.62V19.1533V18.5153L66.1224 18.1159C66.1204 18.1174 66.1182 18.1187 66.1163 18.1202V18.1087C64.355 19.437 61.4192 20.2763 57.9561 20.2763C54.9321 20.2763 52.3103 19.6362 50.5214 18.5893C50.2666 18.4381 50.0272 18.278 49.8058 18.1086V18.1156C49.8027 18.1132 49.7991 18.1111 49.796 18.1086V19.1533V20.62V20.8185C49.796 22.8322 53.4565 24.4707 57.9561 24.4707Z" fill="#986DFF"/>
<path d="M57.9561 18.7329C62.4557 18.7329 66.1163 17.0944 66.1163 15.0807C66.1163 15.0231 66.1029 14.9669 66.097 14.91C66.0629 14.5832 65.9402 14.2667 65.7258 13.9678C64.6712 12.4968 61.5885 11.4285 57.9561 11.4285C54.3237 11.4285 51.241 12.4968 50.1865 13.9678C49.972 14.2667 49.8493 14.5832 49.8153 14.9099C49.8093 14.9669 49.7959 15.023 49.7959 15.0807C49.7959 17.0944 53.4565 18.7329 57.9561 18.7329Z" fill="#986DFF"/>
<path d="M39.7279 38.3671L37.551 40.251L39.7279 42.4488M45.17 38.3671L47.3469 40.251L45.17 42.4488M43.1487 37.959L42.0991 42.8569" stroke="#986DFF" stroke-width="1.5" stroke-linecap="round" stroke-linejoin="round"/>
</svg>
