<svg width="91" height="80" viewBox="0 0 91 80" fill="none" xmlns="http://www.w3.org/2000/svg">
<path d="M0 69.3877H34.2826C34.8349 69.3877 35.2826 69.8354 35.2826 70.3877V72.4693C35.2826 73.0216 35.7304 73.4693 36.2826 73.4693H54.3296C54.8819 73.4693 55.3296 73.0216 55.3296 72.4693V70.3877C55.3296 69.8354 55.7773 69.3877 56.3296 69.3877H90.6122V69.9999C90.6122 75.5228 86.1351 79.9999 80.6122 79.9999H9.99999C4.47714 79.9999 0 75.5228 0 69.9999V69.3877Z" fill="#986DFF"/>
<rect x="7.34694" y="57.9592" width="75.102" height="8.16327" fill="#986DFF"/>
<rect x="7.34694" y="18.7754" width="2.44898" height="39.1837" fill="#986DFF"/>
<rect x="80" y="18.7754" width="2.44898" height="39.1837" fill="#986DFF"/>
<rect x="13.0612" y="33.4695" width="8.16327" height="21.2245" fill="#986DFF"/>
<rect x="25.3061" y="33.4695" width="8.16327" height="21.2245" fill="#986DFF"/>
<rect x="36.7347" y="33.4695" width="40.8163" height="2.44898" fill="#986DFF"/>
<path d="M7.34694 19.3117C7.34694 17.5083 8.80887 16.0464 10.6122 16.0464H43.2653L40.8163 19.3117H7.34694V19.3117Z" fill="#986DFF"/>
<path d="M82.449 19.3117C82.449 17.5083 80.987 16.0464 79.1837 16.0464L65.3061 16.0464L62.8571 19.3117L82.449 19.3117V19.3117Z" fill="#986DFF"/>
<path d="M13.0612 22.5769H35.9184V25.0259V25.0259C35.9184 27.239 37.2814 29.2236 39.347 30.0181L41.2245 30.7402H13.0612V22.5769Z" fill="#986DFF"/>
<path d="M77.551 22.5769L59.5918 22.5769L59.1837 24.6177V24.6177C58.6595 26.7143 57.351 28.5298 55.5277 29.69L53.8775 30.7402L77.551 30.7402V22.5769Z" fill="#986DFF"/>
<path d="M63.1238 4.10792C64.4458 2.61408 66.7534 2.54371 68.1639 3.95422V3.95422C69.5713 5.36161 69.5049 7.66309 68.0186 8.9869L55.5102 20.128L54.6939 24.6177L47.3469 16.8628L51.8367 16.8627L63.1238 4.10792Z" fill="#986DFF"/>
<path d="M46.581 17.7178L54.2021 25.3389L51.4426 27.6082C50.9058 28.0498 50.2322 28.2912 49.5371 28.2912L45.9916 28.2912C45.5404 28.2912 45.0951 28.1894 44.6886 27.9934L39.6962 25.5862C39.5261 25.5041 39.5541 25.2536 39.7382 25.2112L41.7559 24.7458C43.1172 24.4318 44.0816 23.2196 44.0816 21.8225L44.0816 21.4025C44.0816 20.5879 44.4129 19.8083 44.9993 19.2429L46.581 17.7178Z" fill="#986DFF"/>
</svg>
