<svg width="402" height="492" viewBox="0 0 402 492" fill="none" xmlns="http://www.w3.org/2000/svg">
<path d="M236.234 475.495C220.613 459.874 220.613 434.547 236.234 418.926L308.445 346.715L350.871 389.141L258.861 481.152C254.175 485.838 246.577 485.838 241.891 481.152L236.234 475.495Z" fill="white"/>
<path d="M241.891 200.485C246.577 195.799 254.175 195.799 258.861 200.485L360.475 302.099C381.954 323.578 381.954 358.402 360.475 379.881L356.94 383.417L236.234 262.711C220.613 247.09 220.613 221.763 236.234 206.142L241.891 200.485Z" fill="#6934E8"/>
<path d="M165.666 16.5052C181.287 32.1261 181.287 57.4527 165.666 73.0737L93.4543 145.285L51.0278 102.859L143.038 10.8483C147.724 6.16204 155.322 6.16203 160.009 10.8483L165.666 16.5052Z" fill="white"/>
<path d="M160.009 291.515C155.322 296.201 147.724 296.201 143.038 291.515L41.4241 189.901C19.9452 168.422 19.9453 133.598 41.4241 112.119L44.9596 108.583L165.666 229.289C181.287 244.91 181.287 270.237 165.666 285.858L160.009 291.515Z" fill="#6934E8"/>
</svg>
