<svg width="30" height="30" viewBox="0 0 30 30" fill="none" xmlns="http://www.w3.org/2000/svg">
<path fill-rule="evenodd" clip-rule="evenodd" d="M9.63052 2.15955C7.51428 2.25503 5.68004 2.77243 4.19893 4.24728C2.71265 5.72989 2.20168 7.5714 2.10596 9.66562C2.04646 10.9727 1.69851 20.8477 2.70748 23.4374C3.38788 25.1846 4.72796 26.5279 6.49106 27.2105C7.31376 27.5305 8.2529 27.7471 9.63052 27.8103C21.1495 28.3316 25.4195 28.0478 27.2201 23.4374C27.5396 22.6168 27.7595 21.6785 27.8203 20.3043C28.3468 8.7557 27.735 6.25248 25.7274 4.24728C24.1351 2.65887 22.262 1.5776 9.63052 2.15955ZM9.73657 25.4877C8.47536 25.431 7.79109 25.2208 7.33447 25.044C6.1858 24.5976 5.32301 23.7383 4.87932 22.5964C4.11095 20.6286 4.36579 11.2826 4.43435 9.77036C4.50162 8.28904 4.80171 6.93522 5.8469 5.89005C7.14044 4.5997 8.81169 3.96731 20.191 4.48088C21.676 4.54797 23.0329 4.84746 24.0807 5.89005C25.3743 7.18039 26.0159 8.8645 25.4933 20.2002C25.4363 21.4582 25.2255 22.1409 25.0483 22.5964C23.8776 25.5964 21.1844 26.0129 9.73657 25.4877ZM20.3165 8.09649C20.3165 8.9507 21.0111 9.64531 21.8688 9.64531C22.7264 9.64531 23.4223 8.9507 23.4223 8.09649C23.4223 7.24229 22.7264 6.5483 21.8688 6.5483C21.0111 6.5483 20.3165 7.24229 20.3165 8.09649ZM8.32144 14.9843C8.32144 18.6437 11.2953 21.6106 14.9638 21.6106C18.6323 21.6106 21.6062 18.6437 21.6062 14.9843C21.6062 11.3249 18.6323 8.35992 14.9638 8.35992C11.2953 8.35992 8.32144 11.3249 8.32144 14.9843ZM10.6524 14.9843C10.6524 12.6101 12.5824 10.6838 14.9638 10.6838C17.3452 10.6838 19.2752 12.6101 19.2752 14.9843C19.2752 17.3598 17.3452 19.2867 14.9638 19.2867C12.5824 19.2867 10.6524 17.3598 10.6524 14.9843Z" fill="#986DFF"/>
</svg>
