<svg width="30" height="30" viewBox="0 0 30 30" fill="none" xmlns="http://www.w3.org/2000/svg">
<path fill-rule="evenodd" clip-rule="evenodd" d="M7.5 2.5C4.73857 2.5 2.5 4.73857 2.5 7.5V22.5C2.5 25.2614 4.73857 27.5 7.5 27.5H22.5C25.2614 27.5 27.5 25.2614 27.5 22.5V7.5C27.5 4.73857 25.2614 2.5 22.5 2.5H7.5ZM5 7.5C5 6.11929 6.11929 5 7.5 5H22.5C23.8807 5 25 6.11929 25 7.5V22.5C25 23.8807 23.8807 25 22.5 25H7.5C6.11929 25 5 23.8807 5 22.5V7.5ZM11.25 13.75C11.25 13.0596 10.6903 12.5 10 12.5C9.30965 12.5 8.75 13.0596 8.75 13.75V21.25C8.75 21.9404 9.30965 22.5 10 22.5C10.6903 22.5 11.25 21.9404 11.25 21.25V13.75ZM11.875 9.375C11.875 10.4105 11.0355 11.25 10 11.25C8.96446 11.25 8.125 10.4105 8.125 9.375C8.125 8.33946 8.96446 7.5 10 7.5C11.0355 7.5 11.875 8.33946 11.875 9.375ZM15 12.5C15.4244 12.5 15.7994 12.7115 16.0254 13.0349C16.6661 12.6878 17.3795 12.5 18.125 12.5C20.8242 12.5 22.5 14.9072 22.5 16.9642V16.9738V16.9831V16.9926V17.0021V17.0116V17.0212V17.0308V17.0404V17.05V17.0596V17.0694V17.079V17.0887V17.0985V17.1082V17.118V17.1278V17.1376V17.1475V17.1572V17.1672V17.1771V17.187V17.197V17.2069V17.2169V17.2269V17.237V17.247V17.2571V17.2671V17.2773V17.2874V17.2975V17.3077V17.3179V17.3281V17.3382V17.3485V17.3588V17.3691V17.3794V17.3896V17.4V17.4104V17.4206V17.431V17.4415V17.4519V17.4622V17.4727V17.4832V17.4936V17.5041V17.5146V17.5251V17.5357V17.5462V17.5569V17.5674V17.578V17.5886V17.5992V17.6099V17.6205V17.6311V17.6419V17.6525V17.6632V17.674V17.6848V17.6954V17.7063V17.717V17.7278V17.7385V17.7494V17.7601V17.771V17.7817V17.7926V17.8035V17.8144V17.8252V17.8361V17.847V17.858V17.8689V17.8799V17.8907V17.9017V17.9126V17.9236V17.9346V17.9456V17.9566V17.9676V17.9786V17.9896V18.0006V18.0116V18.0227V18.0338V18.0449V18.0559V18.067V18.078V18.0891V18.1003V18.1114V18.1224V18.1335V18.1446V18.1558V18.1669V18.178V18.1891V18.2002V18.2115V18.2226V18.2337V18.2449V18.2561V18.2673V18.2784V18.2896V18.3008V18.312V18.3231V18.3343V18.3455V18.3568V18.3679V18.3791V18.3903V18.4015V18.4128V18.4239V18.4351V18.4462V18.4575V18.4688V18.4799V18.4911V18.5024V18.5135V18.5247V18.536V18.5473V18.5584V18.5696V18.5809V18.592V18.6033V18.6145V18.6256V18.6369V18.648V18.6593V18.6704V18.6816V18.6929V18.704V18.7153V18.7264V18.7375V18.7487V18.7599V18.7711V18.7822V18.7934V18.8045V18.8158V18.8269V18.838V18.8491V18.8602V18.8714V18.8825V18.8936V18.9048V18.9159V18.927V18.938V18.9491V18.9602V18.9713V18.9824V18.9934V19.0045V19.0155V19.0266V19.0376V19.0486V19.0596V19.0706V19.0816V19.0926V19.1036V19.1146V19.1256V19.1365V19.1475V19.1584V19.1694V19.1803V19.1911V19.202V19.2129V19.2237V19.2346V19.2455V19.2564V19.2673V19.278V19.2889V19.2996V19.3104V19.3212V19.332V19.3428V19.3534V19.3641V19.3749V19.3856V19.3962V19.4069V19.4176V19.4282V19.4389V19.4495V19.4601V19.4706V19.4813V19.4918V19.5024V19.5129V19.5234V19.5339V19.5444V19.5549V19.5653V19.5758V19.5861V19.5965V19.6069V19.6173V19.6276V19.638V19.6483V19.6586V19.6689V19.6791V19.6894V19.6996V19.7099V19.72V19.7302V19.7404V19.7505V19.7606V19.7708V19.7808V19.7909V19.8009V19.8109V19.8209V19.8309V19.8409V19.8507V19.8606V19.8706V19.8805V19.8902V19.9001V19.91V19.9198V19.9295V19.9392V19.949V19.9586V19.9684V19.978V19.9876V19.9972V20.0069V20.0164V20.026V20.0355V20.045V20.0544V20.0639V20.0732V20.0826V20.092V20.1014V20.1108V20.12V20.1292V20.1385V20.1478V20.1569V20.1661V20.1752V20.1844V20.1934V20.2025V20.2115V20.2205V20.2295V20.2385V20.2474V20.2563V20.2651V20.274V20.2827V20.2915V20.3003V20.309V20.3177V20.3264V20.335V20.3436V20.3522V20.3608V20.3693V20.3778V20.3862V20.3946V20.403V20.4114V20.4198V20.4281V20.4364V20.4446V20.4527V20.461V20.4691V20.4772V20.4853V20.4934V20.5014V20.5094V20.5173V20.5252V20.5331V20.541V20.5487V20.5565V20.5643V20.572V20.5798V20.5874V20.595V20.6025V20.6101V20.6176V20.625V20.6325V20.6399V20.6472V20.6546V20.6619V20.6691V20.6764V20.6835V20.6906V20.6978V20.7049V20.7119V20.7189V20.7259V20.7327V20.7396V20.7465V20.7533V20.7601V20.7668V20.7735V20.7801V20.7868V20.7934V20.7999V20.8064V20.8129V20.8192V20.8256V20.832V20.8383V20.8445V20.8507V20.8569V20.863V20.8691V20.8751V20.8811V20.8871V20.893V20.8989V20.9048V20.9105V20.9163V20.922V20.9276V20.9332V20.9389V20.9444V20.9499V20.9554V20.9608V20.9661V20.9714V20.9766V20.9819V20.9871V20.9923V20.9972V21.0024V21.0074V21.0122V21.0173V21.0221V21.0269V21.0316V21.0364V21.041V21.0456V21.0503V21.0547V21.0592V21.0637V21.0681V21.0725V21.0768V21.081V21.0853V21.0894V21.0935V21.0975V21.1015V21.1055V21.1094V21.1133V21.117V21.1208V21.1245V21.1281V21.1317V21.1354V21.1389V21.1423V21.1456V21.149V21.1524V21.1556V21.1588V21.1619V21.165V21.168V21.171V21.174V21.1769V21.1798V21.1825V21.1851V21.1879V21.1905V21.193V21.1955V21.198V21.2004V21.2028V21.205V21.2072V21.2095V21.2116V21.2136V21.2156V21.2176V21.2195V21.2214V21.2231V21.2249V21.2266V21.2282V21.2298V21.2313V21.2327V21.2341V21.2355V21.2368V21.2391V21.2412V21.2432V21.2449V21.2464V21.248V21.2495C22.5 21.9399 21.9404 22.5 21.25 22.5C20.5596 22.5 20 21.9404 20 21.25V21.2485V21.247V21.2456V21.2441V21.2422V21.2403V21.238V21.2355V21.2341V21.2327V21.2313V21.2298V21.2282V21.2266V21.2249V21.2231V21.2214V21.2195V21.2176V21.2156V21.2136V21.2116V21.2095V21.2072V21.205V21.2028V21.2004V21.198V21.1955V21.193V21.1905V21.1879V21.1851V21.1825V21.1798V21.1769V21.174V21.171V21.168V21.165V21.1619V21.1588V21.1556V21.1524V21.149V21.1456V21.1423V21.1389V21.1354V21.1317V21.1281V21.1245V21.1208V21.117V21.1133V21.1094V21.1055V21.1015V21.0975V21.0935V21.0894V21.0853V21.081V21.0768V21.0725V21.0681V21.0637V21.0592V21.0547V21.0503V21.0456V21.041V21.0364V21.0316V21.0269V21.0221V21.0173V21.0122V21.0074V21.0024V20.9972V20.9923V20.9871V20.9819V20.9766V20.9714V20.9661V20.9608V20.9554V20.9499V20.9444V20.9389V20.9332V20.9276V20.922V20.9163V20.9105V20.9048V20.8989V20.893V20.8871V20.8811V20.8751V20.8691V20.863V20.8569V20.8507V20.8445V20.8383V20.832V20.8256V20.8192V20.8129V20.8064V20.7999V20.7934V20.7868V20.7801V20.7735V20.7668V20.7601V20.7533V20.7465V20.7396V20.7327V20.7259V20.7189V20.7119V20.7049V20.6978V20.6906V20.6835V20.6764V20.6691V20.6619V20.6546V20.6472V20.6399V20.6325V20.625V20.6176V20.6101V20.6025V20.595V20.5874V20.5798V20.572V20.5643V20.5565V20.5487V20.541V20.5331V20.5252V20.5173V20.5094V20.5014V20.4934V20.4853V20.4772V20.4691V20.461V20.4527V20.4446V20.4364V20.4281V20.4198V20.4114V20.403V20.3946V20.3862V20.3778V20.3693V20.3608V20.3522V20.3436V20.335V20.3264V20.3177V20.309V20.3003V20.2915V20.2827V20.274V20.2651V20.2563V20.2474V20.2385V20.2295V20.2205V20.2115V20.2025V20.1934V20.1844V20.1752V20.1661V20.1569V20.1478V20.1385V20.1292V20.12V20.1108V20.1014V20.092V20.0826V20.0732V20.0639V20.0544V20.045V20.0355V20.026V20.0164V20.0069V19.9972V19.9876V19.978V19.9684V19.9586V19.949V19.9392V19.9295V19.9198V19.91V19.9001V19.8902V19.8805V19.8706V19.8606V19.8507V19.8409V19.8309V19.8209V19.8109V19.8009V19.7909V19.7808V19.7708V19.7606V19.7505V19.7404V19.7302V19.72V19.7099V19.6996V19.6894V19.6791V19.6689V19.6586V19.6483V19.638V19.6276V19.6173V19.6069V19.5965V19.5861V19.5758V19.5653V19.5549V19.5444V19.5339V19.5234V19.5129V19.5024V19.4918V19.4813V19.4706V19.4601V19.4495V19.4389V19.4282V19.4176V19.4069V19.3962V19.3856V19.3749V19.3641V19.3534V19.3428V19.332V19.3212V19.3104V19.2996V19.2889V19.278V19.2673V19.2564V19.2455V19.2346V19.2237V19.2129V19.202V19.1911V19.1803V19.1694V19.1584V19.1475V19.1365V19.1256V19.1146V19.1036V19.0926V19.0816V19.0706V19.0596V19.0486V19.0376V19.0266V19.0155V19.0045V18.9934V18.9824V18.9713V18.9602V18.9491V18.938V18.927V18.9159V18.9048V18.8936V18.8825V18.8714V18.8602V18.8491V18.838V18.8269V18.8158V18.8045V18.7934V18.7822V18.7711V18.7599V18.7487V18.7375V18.7264V18.7153V18.704V18.6929V18.6816V18.6704V18.6593V18.648V18.6369V18.6256V18.6145V18.6033V18.592V18.5809V18.5696V18.5584V18.5473V18.536V18.5247V18.5135V18.5024V18.4911V18.4799V18.4688V18.4575V18.4462V18.4351V18.4239V18.4128V18.4015V18.3903V18.3791V18.3679V18.3568V18.3455V18.3343V18.3231V18.312V18.3008V18.2896V18.2784V18.2673V18.2561V18.2449V18.2337V18.2226V18.2115V18.2002V18.1891V18.178V18.1669V18.1558V18.1446V18.1335V18.1224V18.1114V18.1003V18.0891V18.078V18.067V18.0559V18.0449V18.0338V18.0227V18.0116V18.0006V17.9896V17.9786V17.9676V17.9566V17.9456V17.9346V17.9236V17.9126V17.9017V17.8907V17.8799V17.8689V17.858V17.847V17.8361V17.8252V17.8144V17.8035V17.7926V17.7817V17.771V17.7601V17.7494V17.7385V17.7278V17.717V17.7063V17.6954V17.6848V17.674V17.6632V17.6525V17.6419V17.6311V17.6205V17.6099V17.5992V17.5886V17.578V17.5674V17.5569V17.5462V17.5357V17.5251V17.5146V17.5041V17.4936V17.4832V17.4727V17.4622V17.4519V17.4415V17.431V17.4206V17.4104V17.4V17.3896V17.3794V17.3691V17.3588V17.3485V17.3382V17.3281V17.3179V17.3077V17.2975V17.2874V17.2773V17.2671V17.2571V17.247V17.237V17.2269V17.2169V17.2069V17.197V17.187V17.1771V17.1672V17.1572V17.1475V17.1376V17.1278V17.118V17.1082V17.0985V17.0887V17.079V17.0694V17.0596V17.05V17.0404V17.0308V17.0212V17.0116V17.0021V16.9926V16.9831V16.9738V16.9642C20 16.004 19.1758 15 18.125 15C17.4699 15 16.7467 15.3561 16.25 16.2039V16.2073V16.2201V16.233V16.2459V16.2589V16.2717V16.2847V16.2978V16.3109V16.3239V16.3369V16.35V16.3631V16.3762V16.3894V16.4025V16.4157V16.429V16.4421V16.4554V16.4686V16.4819V16.4953V16.5085V16.5219V16.5352V16.5485V16.562V16.5754V16.5887V16.6021V16.6156V16.6291V16.6425V16.656V16.6695V16.683V16.6966V16.7101V16.7237V16.7373V16.7509V16.7645V16.7781V16.7917V16.8054V16.819V16.8328V16.8464V16.8601V16.8737V16.8875V16.9012V16.915V16.9288V16.9425V16.9562V16.9701V16.9839V16.9976V17.0115V17.0254V17.0391V17.053V17.0669V17.0808V17.0946V17.1085V17.1224V17.1362V17.1502V17.1641V17.178V17.192V17.2059V17.2199V17.2339V17.2477V17.2617V17.2757V17.2898V17.3036V17.3176V17.3316V17.3456V17.3598V17.3738V17.3878V17.4018V17.4158V17.4298V17.4439V17.4579V17.4719V17.486V17.5V17.5141V17.5281V17.5422V17.5562V17.5702V17.5844V17.5985V17.6125V17.6266V17.6406V17.6548V17.6688V17.6829V17.697V17.711V17.7251V17.7391V17.7532V17.7674V17.7814V17.7955V17.8095V17.8236V17.8376V17.8517V17.8657V17.8799V17.8939V17.908V17.922V17.9361V17.9501V17.9642V17.9782V17.9922V18.0062V18.0204V18.0344V18.0484V18.0624V18.0764V18.0904V18.1044V18.1184V18.1324V18.1464V18.1604V18.1744V18.1882V18.2022V18.2162V18.2301V18.2441V18.258V18.272V18.2859V18.2998V18.3136V18.3275V18.3415V18.3554V18.3691V18.383V18.3969V18.4107V18.4245V18.4384V18.4521V18.466V18.4797V18.4935V18.5072V18.521V18.5347V18.5485V18.5623V18.5759V18.5896V18.6033V18.617V18.6306V18.6442V18.6579V18.6715V18.6851V18.6986V18.7122V18.7257V18.7394V18.7529V18.7664V18.7799V18.7934V18.8069V18.8202V18.8337V18.8471V18.8605V18.8739V18.8873V18.9006V18.914V18.9274V18.9406V18.9539V18.9671V18.9804V18.9936V19.0069V19.0201V19.0332V19.0464V19.0595V19.0726V19.0858V19.0989V19.1119V19.1249V19.138V19.151V19.1639V19.1769V19.1899V19.2027V19.2156V19.2285V19.2414V19.2541V19.267V19.2798V19.2925V19.3053V19.318V19.3306V19.3434V19.356V19.3686V19.3811V19.3938V19.4062V19.4188V19.4312V19.4438V19.4562V19.4686V19.481V19.4934V19.5058V19.518V19.5304V19.5426V19.5549V19.567V19.5793V19.5914V19.6035V19.6156V19.6276V19.6397V19.6518V19.6637V19.6756V19.6876V19.6995V19.7114V19.7232V19.735V19.7467V19.7585V19.7703V19.782V19.7936V19.8053V19.8167V19.8284V19.8399V19.8514V19.8629V19.8743V19.8857V19.8971V19.9084V19.9198V19.931V19.9422V19.9534V19.9646V19.9757V19.9869V19.9979V20.0089V20.0199V20.0309V20.0417V20.0526V20.0635V20.0744V20.0851V20.0959V20.1066V20.1172V20.1279V20.1385V20.1491V20.1596V20.1701V20.1805V20.1909V20.2012V20.2116V20.222V20.2323V20.2424V20.2526V20.2627V20.2729V20.2829V20.2929V20.3029V20.3129V20.3228V20.3326V20.3424V20.3521V20.3619V20.3716V20.3813V20.3909V20.4004V20.41V20.4195V20.4289V20.4382V20.4476V20.457V20.4662V20.4754V20.4846V20.4938V20.5029V20.5119V20.5209V20.5299V20.5387V20.5476V20.5564V20.5653V20.5739V20.5826V20.5912V20.5999V20.6084V20.6169V20.6252V20.6338V20.6421V20.6504V20.6586V20.6669V20.675V20.6831V20.6911V20.6991V20.7071V20.7151V20.7229V20.7308V20.7385V20.7463V20.7539V20.7615V20.7691V20.7766V20.784V20.7915V20.7989V20.8061V20.8134V20.8206V20.8278V20.8349V20.8419V20.8489V20.8559V20.8628V20.8695V20.8764V20.883V20.8897V20.8964V20.9029V20.9094V20.9159V20.9223V20.9286V20.9349V20.9411V20.9472V20.9534V20.9595V20.9655V20.9715V20.9774V20.9831V20.989V20.9946V21.0004V21.006V21.0115V21.017V21.0224V21.0278V21.0331V21.0384V21.0435V21.0488V21.0538V21.0588V21.0637V21.0686V21.0735V21.0783V21.083V21.0876V21.0923V21.0967V21.1012V21.1056V21.11V21.1143V21.1185V21.1226V21.1267V21.1308V21.1348V21.1386V21.1425V21.1462V21.15V21.1536V21.1572V21.1608V21.1641V21.1676V21.1709V21.1741V21.1774V21.1805V21.1835V21.1865V21.1895V21.1924V21.1951V21.1979V21.2005V21.2031V21.2056V21.2081V21.2105V21.2129V21.2151V21.2173V21.2194V21.2214V21.2234V21.2254V21.2271V21.2289V21.2306V21.2323V21.2339V21.2354V21.2368V21.2381V21.2394V21.2418V21.2438V21.2455V21.247V21.2486V21.2499C16.25 21.9403 15.6904 22.5 15 22.5C14.3096 22.5 13.75 21.9404 13.75 21.25V21.2486V21.247V21.2455V21.2438V21.2418V21.2394V21.2381V21.2368V21.2354V21.2339V21.2323V21.2306V21.2289V21.2271V21.2254V21.2234V21.2214V21.2194V21.2173V21.2151V21.2129V21.2105V21.2081V21.2056V21.2031V21.2005V21.1979V21.1951V21.1924V21.1895V21.1865V21.1835V21.1805V21.1774V21.1741V21.1709V21.1676V21.1641V21.1608V21.1572V21.1536V21.15V21.1462V21.1425V21.1386V21.1348V21.1308V21.1267V21.1226V21.1185V21.1143V21.11V21.1056V21.1012V21.0967V21.0923V21.0876V21.083V21.0783V21.0735V21.0686V21.0637V21.0588V21.0538V21.0488V21.0435V21.0384V21.0331V21.0278V21.0224V21.017V21.0115V21.006V21.0004V20.9946V20.989V20.9831V20.9774V20.9715V20.9655V20.9595V20.9534V20.9472V20.9411V20.9349V20.9286V20.9223V20.9159V20.9094V20.9029V20.8964V20.8897V20.883V20.8764V20.8695V20.8628V20.8559V20.8489V20.8419V20.8349V20.8278V20.8206V20.8134V20.8061V20.7989V20.7915V20.784V20.7766V20.7691V20.7615V20.7539V20.7463V20.7385V20.7308V20.7229V20.7151V20.7071V20.6991V20.6911V20.6831V20.675V20.6669V20.6586V20.6504V20.6421V20.6338V20.6252V20.6169V20.6084V20.5999V20.5912V20.5826V20.5739V20.5653V20.5564V20.5476V20.5387V20.5299V20.5209V20.5119V20.5029V20.4938V20.4846V20.4754V20.4662V20.457V20.4476V20.4382V20.4289V20.4195V20.41V20.4004V20.3909V20.3813V20.3716V20.3619V20.3521V20.3424V20.3326V20.3228V20.3129V20.3029V20.2929V20.2829V20.2729V20.2627V20.2526V20.2424V20.2323V20.222V20.2116V20.2012V20.1909V20.1805V20.1701V20.1596V20.1491V20.1385V20.1279V20.1172V20.1066V20.0959V20.0851V20.0744V20.0635V20.0526V20.0417V20.0309V20.0199V20.0089V19.9979V19.9869V19.9757V19.9646V19.9534V19.9422V19.931V19.9198V19.9084V19.8971V19.8857V19.8743V19.8629V19.8514V19.8399V19.8284V19.8167V19.8053V19.7936V19.782V19.7703V19.7585V19.7467V19.735V19.7232V19.7114V19.6995V19.6876V19.6756V19.6637V19.6518V19.6397V19.6276V19.6156V19.6035V19.5914V19.5793V19.567V19.5549V19.5426V19.5304V19.518V19.5058V19.4934V19.481V19.4686V19.4562V19.4438V19.4312V19.4188V19.4062V19.3938V19.3811V19.3686V19.356V19.3434V19.3306V19.318V19.3053V19.2925V19.2798V19.267V19.2541V19.2414V19.2285V19.2156V19.2027V19.1899V19.1769V19.1639V19.151V19.138V19.1249V19.1119V19.0989V19.0858V19.0726V19.0595V19.0464V19.0332V19.0201V19.0069V18.9936V18.9804V18.9671V18.9539V18.9406V18.9274V18.914V18.9006V18.8873V18.8739V18.8605V18.8471V18.8337V18.8202V18.8069V18.7934V18.7799V18.7664V18.7529V18.7394V18.7257V18.7122V18.6986V18.6851V18.6715V18.6579V18.6442V18.6306V18.617V18.6033V18.5896V18.5759V18.5623V18.5485V18.5347V18.521V18.5072V18.4935V18.4797V18.466V18.4521V18.4384V18.4245V18.4107V18.3969V18.383V18.3691V18.3554V18.3415V18.3275V18.3136V18.2998V18.2859V18.272V18.258V18.2441V18.2301V18.2162V18.2022V18.1882V18.1744V18.1604V18.1464V18.1324V18.1184V18.1044V18.0904V18.0764V18.0624V18.0484V18.0344V18.0204V18.0062V17.9922V17.9782V17.9642V17.9501V17.9361V17.922V17.908V17.8939V17.8799V17.8657V17.8517V17.8376V17.8236V17.8095V17.7955V17.7814V17.7674V17.7532V17.7391V17.7251V17.711V17.697V17.6829V17.6688V17.6548V17.6406V17.6266V17.6125V17.5985V17.5844V17.5702V17.5562V17.5422V17.5281V17.5141V17.5V17.486V17.4719V17.4579V17.4439V17.4298V17.4158V17.4018V17.3878V17.3738V17.3598V17.3456V17.3316V17.3176V17.3036V17.2898V17.2757V17.2617V17.2477V17.2339V17.2199V17.2059V17.192V17.178V17.1641V17.1502V17.1362V17.1224V17.1085V17.0946V17.0808V17.0669V17.053V17.0391V17.0254V17.0115V16.9976V16.9839V16.9701V16.9562V16.9425V16.9288V16.915V16.9012V16.8875V16.8737V16.8601V16.8464V16.8328V16.819V16.8054V16.7917V16.7781V16.7645V16.7509V16.7373V16.7237V16.7101V16.6966V16.683V16.6695V16.656V16.6425V16.6291V16.6156V16.6021V16.5887V16.5754V16.562V16.5485V16.5352V16.5219V16.5085V16.4953V16.4819V16.4686V16.4554V16.4421V16.429V16.4157V16.4025V16.3894V16.3762V16.3631V16.35V16.3369V16.3239V16.3109V16.2978V16.2847V16.2717V16.2589V16.2459V16.233V16.2201V16.2073V16.1944V16.1815V16.1686V16.1559V16.1431V16.1304V16.1176V16.105V16.0923V16.0796V16.067V16.0544V16.0419V16.0292V16.0168V16.0042V15.9917V15.9792V15.9669V15.9545V15.9421V15.9298V15.9174V15.9051V15.8929V15.888V15.883V15.8781V15.8731V15.8682V15.8633V15.8582V15.8533V15.8483V15.8432V15.8383V15.8333V15.8282V15.8232V15.8181V15.8131V15.808V15.8029V15.7979V15.7928V15.7876V15.7825V15.7774V15.7722V15.7671V15.762V15.7569V15.7516V15.7465V15.7413V15.7361V15.7309V15.7256V15.7205V15.7153V15.71V15.7048V15.6995V15.6943V15.689V15.6838V15.6784V15.6731V15.6679V15.6625V15.6572V15.6519V15.6466V15.6412V15.6359V15.6306V15.6252V15.6199V15.6145V15.6091V15.6038V15.5984V15.593V15.5876V15.5821V15.5767V15.5714V15.566V15.5605V15.5551V15.5496V15.5443V15.5387V15.5333V15.5279V15.5224V15.5169V15.5115V15.506V15.5005V15.495V15.4895V15.484V15.4785V15.473V15.4675V15.462V15.4565V15.4509V15.4454V15.4399V15.4344V15.4288V15.4233V15.4177V15.4121V15.4066V15.401V15.3955V15.3899V15.3844V15.3788V15.3733V15.3676V15.362V15.3565V15.3509V15.3453V15.3398V15.3341V15.3285V15.3229V15.3174V15.3118V15.3061V15.3005V15.2949V15.2892V15.2838V15.2781V15.2725V15.2669V15.2612V15.2556V15.25V15.2444V15.2388V15.2331V15.2275V15.2219V15.2163V15.2106V15.205V15.1994V15.1937V15.1881V15.1825V15.1769V15.1713V15.1656V15.16V15.1544V15.1488V15.1431V15.1375V15.1319V15.1261V15.1205V15.1149V15.1093V15.1036V15.098V15.0924V15.0868V15.0811V15.0755V15.07V15.0644V15.0588V15.0531V15.0475V15.0419V15.0363V15.0306V15.025V15.0194V15.0139V15.0083V15.0026V14.997V14.9915V14.9859V14.9802V14.9746V14.9691V14.9635V14.9579V14.9524V14.9468V14.9412V14.9356V14.9301V14.9245V14.919V14.9134V14.9079V14.9024V14.8968V14.8913V14.8857V14.8801V14.8746V14.8691V14.8636V14.8581V14.8526V14.8471V14.8416V14.8361V14.8306V14.8251V14.8196V14.8141V14.8088V14.8032V14.7977V14.7923V14.7869V14.7814V14.776V14.7705V14.7651V14.7596V14.7542V14.7489V14.7435V14.738V14.7326V14.7273V14.7219V14.7165V14.7111V14.7057V14.7004V14.6951V14.6897V14.6844V14.6791V14.6737V14.6684V14.6631V14.6579V14.6525V14.6473V14.642V14.6368V14.6315V14.6261V14.6209V14.6158V14.6105V14.6053V14.6V14.5949V14.5896V14.5844V14.5792V14.5741V14.5689V14.5638V14.5586V14.5535V14.5484V14.5432V14.5381V14.533V14.5279V14.5229V14.5177V14.5126V14.5076V14.5026V14.4975V14.4925V14.4875V14.4825V14.4775V14.4725V14.4675V14.4625V14.4576V14.4526V14.4478V14.4427V14.4379V14.433V14.428V14.4231V14.4183V14.4135V14.4086V14.4037V14.3989V14.3941V14.3892V14.3845V14.3798V14.375V14.3702V14.3655V14.3608V14.356V14.3512V14.3466V14.3419V14.3372V14.3326V14.3279V14.3232V14.3186V14.314V14.3095V14.3049V14.3003V14.2957V14.2911V14.2866V14.2821V14.2776V14.2731V14.2686V14.2641V14.2597V14.2552V14.2509V14.2464V14.242V14.2376V14.2332V14.2289V14.2246V14.2202V14.216V14.2116V14.2074V14.2031V14.1989V14.1946V14.1904V14.1861V14.182V14.1778V14.1736V14.1695V14.1654V14.1613V14.1571V14.153V14.149V14.1449V14.1409V14.1369V14.1329V14.1289V14.1249V14.1209V14.117V14.113V14.1091V14.1052V14.1014V14.0975V14.0936V14.0899V14.086V14.0823V14.0785V14.0747V14.071V14.0673V14.0635V14.0599V14.0561V14.0525V14.0489V14.0452V14.0416V14.0381V14.0345V14.031V14.0274V14.0239V14.0204V14.017V14.0135V14.0101V14.0066V14.0032V13.9999V13.9965V13.9931V13.9899V13.9865V13.9832V13.98V13.9768V13.9735V13.9704V13.9671V13.964V13.9609V13.9577V13.9546V13.9515V13.9485V13.9454V13.9424V13.9394V13.9364V13.9334V13.9305V13.9275V13.9246V13.9217V13.9189V13.9161V13.9132V13.9105V13.9076V13.9049V13.9021V13.8995V13.8968V13.8941V13.8915V13.8889V13.8863V13.8836V13.8811V13.8785V13.876V13.8735V13.8711V13.8686V13.8663V13.8637V13.8614V13.8591V13.8567V13.8544V13.8521V13.8499V13.8476V13.8454V13.8433V13.841V13.8389V13.8368V13.8346V13.8326V13.8305V13.8285V13.8265V13.8245V13.8225V13.8206V13.8188V13.8169V13.815V13.8131V13.8112V13.8095V13.8077V13.806V13.8042V13.8026V13.801V13.7992V13.7978V13.7961V13.7945V13.793V13.7915V13.79V13.7885V13.7871V13.7857V13.7844V13.783V13.7816V13.7804V13.779V13.7778V13.7754V13.7731V13.7709V13.7688V13.7668V13.7649V13.7631V13.7614V13.7599V13.7584V13.7565V13.7552V13.7537V13.7525V13.751C13.75 13.0606 14.3096 12.5 15 12.5Z" fill="#986DFF"/>
</svg>
